<?xml version="1.0" standalone="no"?>
<!DOCTYPE svg PUBLIC "-//W3C//DTD SVG 20010904//EN"
 "http://www.w3.org/TR/2001/REC-SVG-20010904/DTD/svg10.dtd">
<svg version="1.0" xmlns="http://www.w3.org/2000/svg"
 width="1024.000000pt" height="1024.000000pt" viewBox="0 0 1024.000000 1024.000000"
 preserveAspectRatio="xMidYMid meet">

<g transform="translate(0.000000,1024.000000) scale(0.100000,-0.100000)"
fill="#000000" stroke="none">
<path d="M5819 7890 c-329 -58 -710 -242 -1014 -488 -55 -44 -119 -97 -142
-117 l-42 -36 -102 12 c-208 24 -417 -18 -534 -107 -17 -13 -52 -52 -79 -87
-44 -58 -56 -68 -120 -93 -342 -132 -670 -376 -940 -699 -366 -438 -589 -987
-622 -1532 -4 -62 -9 -113 -13 -113 -9 0 -646 -123 -649 -125 -2 -2 49 -81
112 -177 l116 -175 0 -572 0 -573 43 7 c74 12 561 105 580 111 9 3 17 15 17
27 0 18 7 14 50 -28 l50 -49 2 -214 3 -215 36 -29 37 -30 428 81 c236 44 462
87 502 95 54 10 74 11 77 2 2 -6 5 -47 7 -92 3 -69 7 -88 33 -130 38 -61 108
-109 182 -124 62 -13 67 -12 678 104 160 30 389 73 510 95 121 22 558 103 970
180 1246 233 1666 311 1754 327 122 22 186 59 241 138 54 80 60 123 61 503 l0
343 22 4 c208 40 411 79 487 92 145 26 139 14 73 129 -31 55 -102 182 -159
283 l-102 183 34 56 c19 31 37 72 41 92 5 20 8 155 8 301 l0 265 -28 57 c-49
101 -152 168 -255 168 -30 0 -377 -62 -424 -76 -13 -4 -31 23 -83 125 -117
230 -246 410 -440 610 -152 157 -327 296 -497 395 l-48 28 17 31 c10 19 17 56
17 92 1 80 -25 130 -89 170 -41 26 -56 29 -109 27 -120 -4 -152 -4 -217 5
l-67 8 30 75 c67 168 100 363 79 474 -23 124 -69 167 -209 192 -102 18 -185
16 -313 -6z m309 -171 c22 -7 34 -19 38 -36 16 -63 -25 -331 -48 -317 -7 4 -8
2 -4 -5 4 -6 0 -34 -10 -61 -15 -42 -21 -49 -38 -44 -39 10 -151 73 -149 82 1
5 -10 20 -25 33 l-27 24 24 -27 c46 -52 6 -28 -53 31 -38 38 -56 63 -51 72 5
7 4 10 -3 5 -6 -3 -19 6 -30 21 -31 45 -82 147 -82 164 0 12 21 22 79 38 144
39 294 47 379 20z m-487 -86 c6 -16 12 -32 13 -38 8 -43 83 -152 151 -221 65
-67 96 -89 171 -126 53 -26 89 -49 86 -56 -6 -20 -33 -14 -107 22 -153 75
-299 247 -345 405 -13 48 13 59 31 14z m-60 -35 c16 -62 73 -167 127 -234 78
-96 194 -179 305 -218 18 -6 18 -7 0 -37 -10 -17 -53 -67 -96 -111 -61 -63
-75 -83 -66 -94 14 -18 -2 -39 -144 -182 -199 -202 -556 -454 -855 -605 l-184
-92 -74 79 -73 79 77 56 c155 112 343 264 366 295 25 33 46 87 46 118 0 31
-45 68 -83 68 -60 0 -149 -64 -429 -307 l-107 -93 -49 83 c-85 140 -85 142
-65 174 10 16 51 71 92 123 310 395 617 664 952 835 96 49 220 103 241 105 4
0 12 -19 19 -42z m-1046 -513 c116 -11 115 -10 43 -78 -34 -33 -66 -60 -70
-59 -5 1 -7 -4 -5 -10 1 -7 -4 -12 -10 -10 -7 1 -12 -1 -11 -5 4 -14 -34 -63
-43 -57 -5 3 -8 1 -7 -4 2 -6 -42 -67 -97 -137 -55 -69 -101 -131 -103 -136
-2 -5 -16 -9 -31 -9 -71 0 -248 -67 -496 -187 -66 -31 -124 -59 -128 -61 -24
-11 98 155 377 513 153 196 199 228 356 244 73 8 104 8 225 -4z m1573 -91 c-7
-7 -147 -44 -167 -44 -8 0 0 11 19 25 27 20 46 25 94 25 32 0 57 -3 54 -6z
m274 -31 c42 -15 54 -15 99 -4 69 18 77 9 61 -67 -15 -70 -101 -245 -123 -248
-13 -1 -13 4 3 50 9 28 17 77 18 109 0 50 -2 58 -17 55 -14 -2 -19 -17 -24
-62 -9 -79 -45 -156 -75 -156 l-22 0 26 63 c31 73 44 223 21 238 -22 13 -29 0
-29 -60 0 -68 -22 -149 -57 -209 l-25 -43 -71 3 -71 3 -14 63 c-9 41 -18 62
-28 62 -23 0 -28 -27 -14 -76 14 -49 13 -50 -13 -56 -14 -2 -28 20 -67 116
-27 65 -52 126 -55 135 -4 14 8 19 63 29 37 7 119 26 182 42 135 34 169 36
232 13z m-1424 -307 c9 -44 -28 -103 -101 -164 -142 -117 -342 -262 -355 -257
-7 3 -11 1 -8 -4 8 -12 -172 -143 -186 -135 -6 4 -8 3 -5 -3 4 -6 -61 -62
-148 -127 -134 -101 -158 -115 -175 -106 -16 8 -20 8 -18 -2 2 -7 -3 -12 -10
-10 -8 1 -11 -2 -7 -8 5 -8 11 -7 21 1 8 6 17 10 20 7 4 -5 -168 -133 -206
-153 -8 -4 14 22 49 58 42 43 69 63 79 59 9 -3 13 -1 9 5 -11 18 213 219 228
205 5 -4 5 -2 2 4 -12 21 606 566 708 625 55 32 98 35 103 5z m1522 -96 c0
-11 -6 -20 -12 -20 -21 0 -338 -19 -411 -25 -67 -5 -68 -5 -65 17 3 23 6 23
208 34 113 6 222 11 243 12 31 2 37 -1 37 -18z m118 -12 c-6 -18 -28 -21 -28
-4 0 9 7 16 16 16 9 0 14 -5 12 -12z m-2259 -216 c18 -26 21 -36 12 -45 -15
-15 -33 7 -97 121 -38 69 -44 85 -33 98 11 13 18 4 53 -63 23 -43 52 -93 65
-111z m-922 128 c7 0 13 -4 13 -10 0 -5 -6 -10 -14 -10 -8 0 -18 -10 -22 -22
l-7 -23 -10 22 c-5 12 -21 27 -36 32 -24 9 -25 9 -4 10 13 1 28 10 35 21 l13
20 9 -20 c5 -11 15 -20 23 -20z m2393 30 c0 -5 -4 -10 -10 -10 -5 0 -10 5 -10
10 0 6 5 10 10 10 6 0 10 -4 10 -10z m760 -77 c318 -340 389 -710 175 -912
-65 -61 -125 -92 -245 -125 -169 -46 -401 -32 -528 33 -46 23 -128 102 -137
131 -8 24 -33 26 -41 5 -7 -18 37 -87 75 -116 l26 -20 -25 6 c-50 13 -127 53
-161 83 -20 17 -50 57 -67 89 -116 219 -16 541 250 806 54 53 74 67 98 67 36
0 36 0 10 -51 -12 -22 -18 -44 -15 -49 15 -24 37 -6 62 50 l26 60 51 0 c28 0
94 3 147 6 l96 7 37 -62 c35 -56 53 -71 69 -55 3 4 -6 30 -21 58 -15 28 -28
54 -30 59 -2 4 14 7 36 7 37 0 46 -6 112 -77z m200 61 c0 -8 -5 -12 -10 -9 -6
4 -8 11 -5 16 9 14 15 11 15 -7z m-2571 -41 c6 -16 34 -64 60 -108 49 -79 53
-95 26 -95 -26 0 -134 207 -118 224 12 12 21 6 32 -21z m-38 -75 c13 -29 39
-77 57 -107 l33 -55 -48 -43 c-80 -72 -80 -72 -108 -11 -13 29 -32 84 -42 122
l-18 68 44 39 c24 21 47 39 51 39 3 0 17 -23 31 -52z m1068 -134 c-1 -84 -33
-224 -68 -296 -58 -121 -116 -172 -431 -375 -255 -164 -308 -195 -320 -188
-10 6 40 42 280 206 74 50 142 98 150 107 19 18 -57 -30 -127 -80 -53 -38 -69
-46 -58 -28 3 6 -1 7 -10 3 -13 -5 -14 -7 -3 -14 10 -7 10 -9 -2 -9 -9 0 -24
6 -35 13 -29 20 -55 28 -55 17 0 -6 6 -10 14 -10 8 0 18 -5 22 -12 5 -8 2 -9
-9 -5 -10 3 -17 2 -17 -2 0 -5 7 -11 15 -15 8 -3 15 -1 15 4 0 6 7 10 16 10
13 0 14 -3 4 -15 -8 -9 -21 -13 -36 -9 -18 5 -24 2 -24 -10 0 -9 -7 -16 -15
-16 -8 0 -14 -3 -14 -7 3 -21 -2 -33 -12 -27 -8 5 -8 9 1 14 8 5 8 9 -3 13
-11 4 -14 -1 -12 -19 2 -18 -1 -22 -10 -14 -10 8 -16 3 -26 -19 -7 -16 -17
-27 -23 -24 -5 3 -6 1 -3 -4 4 -6 0 -14 -9 -17 -15 -6 -15 -4 -3 13 147 202
240 365 294 516 l33 90 87 43 c47 23 92 39 98 36 7 -4 9 -4 5 1 -4 4 41 36
100 69 59 34 125 74 147 89 22 15 41 27 42 27 1 0 2 -25 2 -56z m-1809 -29 c0
-8 -4 -15 -9 -15 -13 0 -22 16 -14 24 11 11 23 6 23 -9z m1200 -187 c0 -5 -9
-8 -19 -8 -21 0 -141 115 -141 136 0 33 31 16 92 -49 37 -40 67 -75 68 -79z
m-132 31 c62 -63 67 -71 50 -80 -23 -13 -45 2 -104 71 -35 41 -42 55 -33 66 6
8 13 14 15 14 1 0 34 -32 72 -71z m-496 35 c7 -15 25 -32 41 -39 l28 -11 -115
-103 c-155 -138 -236 -226 -236 -256 0 -29 14 -39 44 -31 30 7 187 111 293
192 46 36 83 60 83 55 0 -5 16 -30 36 -56 l35 -47 -17 -54 c-49 -155 -226
-356 -409 -464 -108 -63 -155 -88 -155 -83 0 3 47 55 105 114 124 129 135 157
38 97 -120 -73 -317 -167 -439 -207 -65 -22 -120 -39 -122 -37 -13 13 183 380
273 511 25 36 45 71 45 77 0 15 -45 2 -122 -35 -38 -19 -68 -31 -68 -28 0 2
25 37 55 77 67 88 169 185 248 237 93 62 233 114 310 116 31 1 39 -3 49 -25z
m425 -83 l62 -69 -69 -37 -70 -36 -49 53 c-27 29 -50 57 -52 62 -4 7 98 95
111 95 3 1 33 -30 67 -68z m2777 1 c2 -4 1 -14 -4 -22 -7 -11 -12 -12 -21 -3
-6 6 -8 16 -5 22 8 13 23 14 30 3z m-4224 -47 c0 -8 -7 -15 -15 -15 -8 0 -15
7 -15 15 0 8 7 15 15 15 8 0 15 -7 15 -15z m4260 -65 c0 -5 -4 -10 -10 -10 -5
0 -10 5 -10 10 0 6 5 10 10 10 6 0 10 -4 10 -10z m-4070 -40 c0 -5 -4 -10 -10
-10 -5 0 -10 5 -10 10 0 6 5 10 10 10 6 0 10 -4 10 -10z m20 -141 c0 -5 -7 -9
-15 -9 -15 0 -20 12 -9 23 8 8 24 -1 24 -14z m2063 -34 c1 -5 -6 -11 -15 -13
-11 -2 -18 3 -18 13 0 17 30 18 33 0z m-2403 -10 c0 -8 -4 -15 -9 -15 -13 0
-22 16 -14 24 11 11 23 6 23 -9z m4290 -25 c0 -5 -5 -10 -11 -10 -5 0 -7 5 -4
10 3 6 8 10 11 10 2 0 4 -4 4 -10z m-1690 -10 c0 -5 -7 -10 -15 -10 -8 0 -15
5 -15 10 0 6 7 10 15 10 8 0 15 -4 15 -10z m-1106 -21 c-3 -5 -10 -7 -15 -3
-5 3 -7 10 -3 15 3 5 10 7 15 3 5 -3 7 -10 3 -15z m2942 -6 c-10 -10 -19 5
-10 18 6 11 8 11 12 0 2 -7 1 -15 -2 -18z m-1744 -63 c17 -6 18 -9 6 -9 -9 -1
-23 -10 -32 -22 l-14 -21 -11 21 c-7 12 -22 21 -34 22 -20 1 -19 2 5 10 15 6
30 20 34 32 l7 22 8 -23 c5 -12 19 -27 31 -32z m-2822 20 c0 -5 -4 -10 -10
-10 -5 0 -10 5 -10 10 0 6 5 10 10 10 6 0 10 -4 10 -10z m5509 -38 l28 -28 8
-196 c8 -221 3 -285 -28 -325 -26 -34 -42 -45 -87 -59 -19 -7 -34 -16 -33 -20
1 -5 25 -52 54 -104 129 -237 210 -392 206 -396 -4 -5 -214 -44 -234 -44 -8 0
-61 95 -123 223 l-109 222 -1 -161 0 -162 -102 -20 c-57 -10 -106 -16 -110
-13 -4 4 -9 237 -10 518 l-3 511 170 32 c94 18 186 36 205 40 19 4 59 8 88 9
46 1 58 -3 81 -27z m-5369 -24 c0 -45 23 -72 70 -83 l45 -12 -42 -7 c-50 -9
-58 -18 -70 -76 l-10 -45 -14 50 c-14 47 -17 51 -56 60 -59 14 -61 22 -8 29
49 8 65 28 65 82 0 13 5 24 10 24 6 0 10 -10 10 -22z m1205 -108 c-21 -22 -36
-43 -32 -46 4 -4 7 -2 7 5 0 8 8 10 23 6 15 -4 18 -4 8 3 -15 11 -5 36 10 26
6 -3 16 2 23 12 12 15 17 16 44 5 l31 -13 -1 -81 c-1 -77 14 -172 32 -208 13
-24 4 -28 -40 -17 -22 6 -46 8 -53 5 -12 -4 -23 -35 -27 -75 -1 -4 9 -9 21
-12 23 -6 -163 -48 -306 -70 -38 -6 -81 -13 -95 -16 -14 -2 -20 -1 -14 3 17
12 25 59 15 86 -12 30 10 67 40 67 16 0 18 5 13 28 -11 47 -27 56 -64 37 -61
-31 -41 -7 23 28 110 60 229 141 292 198 33 30 62 57 63 62 2 4 9 7 15 7 6 0
-6 -18 -28 -40z m3518 0 l27 -30 0 -420 c0 -272 -4 -429 -11 -447 -13 -34 -45
-70 -80 -88 -30 -16 -339 -75 -391 -75 -23 0 -44 8 -62 25 l-26 24 0 441 c0
483 -1 477 60 520 36 26 353 91 415 85 29 -3 47 -12 68 -35z m-3336 -27 c-3
-10 -5 -4 -5 12 0 17 2 24 5 18 2 -7 2 -21 0 -30z m1403 8 c0 -14 -18 -23 -30
-16 -6 4 -8 11 -5 16 8 12 35 12 35 0z m-100 -46 c0 -8 -4 -15 -9 -15 -13 0
-22 16 -14 24 11 11 23 6 23 -9z m1371 -65 l30 -29 -3 -435 -3 -435 -34 -35
c-18 -19 -45 -39 -60 -45 -14 -6 -114 -26 -221 -46 -107 -20 -205 -39 -217
-42 l-23 -5 0 510 0 510 45 6 c25 4 120 22 213 41 215 43 235 43 273 5z
m-2156 -10 c0 -16 -6 -26 -18 -28 -19 -4 -32 20 -23 44 9 25 41 13 41 -16z
m450 -11 c0 -7 -8 -15 -17 -17 -18 -3 -25 18 -11 32 10 10 28 1 28 -15z
m-2551 -20 c-3 -5 -10 -7 -15 -3 -5 3 -7 10 -3 15 3 5 10 7 15 3 5 -3 7 -10 3
-15z m2196 -19 c0 -11 -6 -20 -14 -20 -18 0 -29 16 -21 30 11 18 35 11 35 -10z
m-395 -40 c-5 -8 -11 -8 -17 -2 -6 6 -7 16 -3 22 5 8 11 8 17 2 6 -6 7 -16 3
-22z m1806 -19 l29 -29 0 -466 c0 -256 0 -469 0 -473 1 -7 -154 -41 -192 -42
-17 -1 -18 14 -18 184 0 210 10 193 -98 174 l-64 -11 3 -189 c2 -104 3 -189 3
-189 -1 0 -48 -9 -104 -20 -56 -12 -104 -19 -106 -17 -2 1 -4 213 -4 470 -2
436 0 469 17 499 33 57 59 68 249 103 229 43 247 43 285 6z m-1888 -52 c-17
-17 -37 -1 -22 17 8 10 15 12 23 4 7 -7 7 -13 -1 -21z m220 -6 c-7 -2 -19 -2
-25 0 -7 3 -2 5 12 5 14 0 19 -2 13 -5z m-173 -25 c9 -3 -1 -9 -22 -13 -39 -7
-58 -2 -58 18 0 8 3 8 9 -2 6 -10 10 -10 16 -1 6 9 10 9 16 -1 7 -11 9 -9 9 6
0 12 3 16 8 9 4 -6 14 -13 22 -16z m117 16 c-3 -3 -12 -4 -19 -1 -8 3 -5 6 6
6 11 1 17 -2 13 -5z m1083 -471 c0 -455 0 -458 -23 -497 -37 -67 -66 -79 -301
-121 -201 -36 -202 -34 -207 205 l-4 174 90 18 c138 26 125 35 125 -93 l0
-111 38 6 c80 15 72 -31 72 431 l0 414 38 7 c20 3 53 10 72 14 19 4 50 8 68 9
l32 1 0 -457z m-1295 437 c15 -7 16 -9 4 -9 -9 -1 -32 -4 -50 -7 -34 -6 -34
-6 -9 9 30 18 30 18 55 7z m-1425 -25 c0 -8 -4 -15 -10 -15 -5 0 -10 7 -10 15
0 8 5 15 10 15 6 0 10 -7 10 -15z m1330 5 c-8 -5 -22 -9 -30 -9 -10 0 -8 3 5
9 27 12 43 12 25 0z m-1495 -128 c3 -4 25 -12 48 -18 l42 -11 -30 -7 c-58 -14
-72 -24 -78 -55 -8 -40 -23 -40 -32 0 -7 30 -22 41 -80 55 -30 7 -30 7 13 15
57 11 58 12 73 71 l12 53 13 -48 c7 -27 15 -52 19 -55z m2295 -31 c0 -86 -2
-100 -17 -105 -10 -2 -71 -14 -135 -26 l-118 -22 0 -114 c0 -64 4 -114 9 -114
5 0 42 7 82 15 40 9 73 14 74 13 2 -2 4 -43 6 -93 l4 -90 -87 -14 -88 -15 0
-101 c0 -56 2 -104 5 -107 3 -3 65 5 138 18 73 13 133 24 135 24 1 0 1 -44 0
-97 l-3 -97 -75 -13 c-41 -8 -144 -27 -229 -43 -85 -17 -162 -30 -172 -30 -18
0 -19 20 -19 510 0 281 1 510 3 510 1 1 99 20 217 44 118 24 227 44 243 45
l27 1 0 -99z m-2570 59 c0 -5 -4 -10 -10 -10 -5 0 -10 5 -10 10 0 6 5 10 10
10 6 0 10 -4 10 -10z m2000 -579 l0 -509 -72 -12 c-40 -7 -89 -15 -109 -20
-32 -6 -38 -5 -47 14 -27 61 -142 355 -142 365 0 6 -4 11 -10 11 -6 0 -11 -82
-12 -212 l-3 -212 -85 -18 c-47 -9 -94 -17 -105 -18 -20 0 -20 8 -24 504 l-3
504 48 10 c111 23 175 34 178 31 1 -2 36 -87 76 -189 41 -102 78 -189 82 -194
4 -6 8 87 8 206 l0 216 78 15 c42 8 92 15 110 16 l32 1 0 -509z m-1990 365 c0
-11 -19 -15 -25 -6 -3 5 1 10 9 10 9 0 16 -2 16 -4z m1245 -8 c55 -25 55 -28
55 -528 0 -253 -1 -460 -3 -460 -1 0 -49 -9 -107 -20 -58 -11 -106 -20 -107
-20 -2 0 -3 84 -3 186 0 172 -1 185 -17 180 -10 -2 -44 -10 -75 -16 l-58 -11
0 -184 0 -184 -37 -7 c-21 -3 -68 -12 -105 -19 l-68 -12 0 466 c0 586 -17 542
232 591 79 15 166 32 193 38 69 13 71 13 100 0z m-875 -547 c0 -226 3 -412 8
-414 4 -2 59 6 122 19 165 33 150 41 150 -74 l0 -98 -107 -18 c-60 -10 -170
-31 -245 -46 -76 -15 -140 -25 -143 -22 -3 3 -5 234 -5 513 l0 508 58 11 c31
6 73 15 92 19 77 19 70 59 70 -398z m-322 303 c22 -25 22 -29 22 -293 0 -262
-1 -269 -22 -301 -38 -56 -67 -69 -191 -92 l-117 -22 0 -218 c0 -120 -1 -218
-3 -218 -1 0 -49 -9 -107 -20 -58 -11 -106 -20 -107 -20 -2 0 -3 217 -3 482
l0 482 -50 73 -51 72 27 7 c111 28 525 102 549 99 17 -3 40 -16 53 -31z m5332
-359 c0 -152 12 -133 -98 -155 -84 -16 -82 -17 -82 46 l0 56 -47 -7 c-27 -4
-51 -9 -55 -12 -5 -2 -8 -47 -8 -99 0 -109 -12 -102 135 -80 96 15 135 7 149
-29 3 -9 6 -99 6 -200 0 -181 0 -184 -25 -213 -33 -39 -54 -46 -232 -78 -144
-25 -154 -26 -178 -10 -25 17 -26 18 -23 134 l3 117 53 6 c29 4 68 10 87 13
l34 7 3 -53 c3 -52 3 -53 33 -50 77 7 75 3 75 102 0 50 -3 90 -7 90 -5 0 -43
-7 -86 -15 -112 -21 -143 -20 -172 10 -25 24 -25 25 -25 222 0 212 3 228 52
254 19 10 345 75 391 78 15 1 17 -12 17 -134z m-576 2 c22 -22 23 -28 29 -312
4 -158 7 -339 7 -400 l0 -112 -72 -12 c-40 -7 -81 -15 -90 -17 -17 -5 -18 7
-18 156 0 115 -3 159 -11 154 -6 -3 -34 -9 -63 -13 l-51 -6 -5 -160 -5 -159
-60 -13 c-33 -7 -72 -12 -87 -13 l-28 0 0 383 c0 354 2 385 19 424 11 24 32
48 48 56 16 9 87 25 158 37 72 12 132 24 134 26 15 13 75 1 95 -19z m-1434
-62 c0 -3 -16 -29 -36 -59 -29 -44 -43 -56 -77 -65 -59 -15 -168 -33 -173 -28
-2 2 6 28 20 58 l23 54 104 21 c112 23 139 27 139 19z m900 -434 c0 -401 -1
-430 -17 -435 -36 -10 -144 -29 -147 -25 -2 2 -6 196 -9 431 l-6 427 37 7 c20
3 53 10 72 14 77 17 70 60 70 -419z m-230 384 c0 -2 -9 -28 -21 -57 -12 -29
-50 -133 -85 -230 -52 -145 -62 -182 -54 -203 5 -14 43 -96 84 -183 41 -86 76
-163 78 -171 2 -10 -16 -18 -62 -27 -118 -23 -112 -26 -155 79 -21 50 -42 96
-46 100 -7 9 -19 -29 -55 -165 l-18 -67 -50 -11 c-73 -16 -136 -24 -136 -17 0
3 36 109 79 236 l79 230 -60 133 c-32 73 -70 161 -83 195 l-24 62 52 11 c29 5
69 11 91 13 l39 2 35 -92 c20 -51 38 -93 42 -93 4 0 23 51 43 113 l37 114 78
15 c85 17 112 20 112 13z m-601 -151 c20 -26 21 -37 21 -424 l0 -398 -80 -12
c-44 -7 -83 -13 -87 -14 -4 0 -6 70 -4 158 l3 158 -54 -7 c-96 -12 -88 4 -88
-175 0 -157 0 -160 -22 -165 -34 -7 -140 -25 -150 -25 -4 0 -8 176 -8 391 0
433 1 441 63 473 35 18 276 64 344 65 34 1 45 -4 62 -25z m-769 -448 c0 -190
4 -347 8 -350 4 -2 53 4 107 15 145 28 135 32 135 -59 l0 -78 -182 -34 c-101
-18 -195 -35 -210 -38 l-28 -4 0 431 0 431 23 5 c37 9 111 23 130 24 16 1 17
-22 17 -343z m-279 265 l24 -19 0 -403 0 -404 -51 -11 c-29 -6 -68 -14 -88
-18 l-36 -7 0 156 0 155 -22 -5 c-13 -3 -43 -9 -68 -13 l-45 -8 0 -156 0 -155
-65 -12 c-36 -7 -75 -15 -87 -18 l-23 -5 0 397 c0 386 1 399 21 431 11 19 30
39 41 45 25 14 290 67 339 68 23 1 46 -6 60 -18z m-573 -98 c8 -11 12 -56 12
-138 l0 -122 -77 -11 c-110 -17 -103 -20 -103 49 0 53 -2 60 -17 55 -10 -2
-37 -8 -60 -11 l-43 -7 0 -274 c0 -233 2 -274 15 -274 7 0 37 5 65 11 l50 11
0 90 c0 85 -1 90 -20 85 -18 -5 -20 0 -20 58 0 35 -2 70 -5 77 -5 11 17 18 92
31 54 10 105 17 113 17 13 0 15 -35 17 -245 1 -135 1 -245 0 -245 -1 0 -76
-14 -167 -31 -243 -46 -263 -47 -294 -16 l-26 26 0 371 c0 386 2 404 43 439
20 16 355 81 387 75 14 -3 31 -12 38 -21z m-688 -162 l0 -78 -32 -6 c-18 -3
-41 -8 -50 -12 -15 -6 -18 -1 -18 30 0 34 -2 36 -27 33 -26 -3 -28 -7 -31 -52
l-3 -48 64 6 c91 10 97 3 97 -128 0 -128 -4 -132 -132 -157 -51 -10 -99 -18
-105 -18 -9 -1 -13 21 -13 78 l0 79 31 6 c60 12 69 8 69 -24 0 -25 4 -30 24
-30 25 0 36 21 36 72 l0 27 -63 -6 c-58 -5 -66 -3 -85 18 -19 20 -22 34 -22
115 0 120 8 130 120 154 47 10 97 18 113 19 l27 1 0 -79z m-310 2 c3 -2 6
-103 8 -223 3 -244 10 -221 -70 -236 l-38 -6 0 76 c0 74 -1 76 -25 76 -25 0
-25 -1 -25 -84 l0 -84 -52 -9 c-29 -5 -57 -6 -61 -2 -5 4 -7 104 -5 223 2 175
6 218 18 230 30 30 228 61 250 39z m-322 -71 c13 -17 18 -330 6 -391 -9 -43
-35 -58 -128 -76 -42 -8 -87 -17 -100 -21 l-23 -5 -6 223 c-3 123 -7 229 -9
237 -2 11 24 20 107 36 116 22 132 22 153 -3z"/>
<path d="M6098 7703 c7 -3 16 -2 19 1 4 3 -2 6 -13 5 -11 0 -14 -3 -6 -6z"/>
<path d="M5948 7673 c7 -3 16 -2 19 1 4 3 -2 6 -13 5 -11 0 -14 -3 -6 -6z"/>
<path d="M5890 7666 c0 -2 7 -7 16 -10 8 -3 12 -2 9 4 -6 10 -25 14 -25 6z"/>
<path d="M6091 7324 c0 -11 3 -14 6 -6 3 7 2 16 -1 19 -3 4 -6 -2 -5 -13z"/>
<path d="M5957 7319 c7 -7 15 -10 18 -7 3 3 -2 9 -12 12 -14 6 -15 5 -6 -5z"/>
<path d="M5298 7341 c-126 -41 -218 -179 -205 -306 25 -240 317 -345 490 -177
56 54 79 105 85 188 4 61 1 80 -20 125 -53 115 -132 170 -253 175 -38 2 -82
-1 -97 -5z m205 -69 c133 -71 163 -265 59 -376 -41 -43 -118 -76 -177 -75
l-50 1 39 9 c57 14 54 16 -16 17 -43 0 -57 -3 -43 -8 24 -10 9 -12 -23 -4 -18
5 -20 9 -11 20 13 16 -2 19 -17 4 -11 -11 -69 31 -85 63 -7 13 4 6 24 -15 20
-21 44 -38 54 -38 17 1 17 1 1 14 -10 7 -18 16 -18 20 0 4 14 -4 31 -16 26
-19 43 -23 108 -23 66 0 83 4 113 25 40 27 88 94 88 122 0 10 5 18 11 18 6 0
8 -7 5 -15 -17 -43 -18 -49 -2 -28 13 17 17 40 15 88 -1 40 -6 62 -12 58 -7
-4 -8 1 -3 13 5 13 4 16 -3 9 -7 -7 -7 -25 0 -54 5 -24 8 -48 6 -54 -2 -6 -9
15 -15 45 -15 66 -67 132 -126 160 -30 14 -33 18 -14 14 22 -5 26 -3 22 9 -6
16 -54 21 -54 6 0 -4 -18 -11 -40 -14 -22 -3 -58 -14 -80 -25 -22 -11 -43 -16
-46 -11 -3 5 3 12 13 15 10 3 27 9 38 14 16 7 17 9 3 9 -32 2 -69 -21 -63 -39
3 -10 -7 -33 -25 -55 -16 -21 -30 -34 -30 -29 0 5 11 22 25 38 29 34 23 55 -8
29 l-22 -18 20 24 c76 89 200 111 308 53z m-26 -80 c44 -31 66 -84 61 -147 -7
-89 -64 -139 -158 -139 -98 0 -160 62 -160 160 0 97 68 157 171 151 37 -2 65
-10 86 -25z m-302 -22 c-13 -14 -21 -44 -25 -93 l-7 -72 -2 58 c-1 61 20 127
40 127 7 0 5 -8 -6 -20z m2 -62 c-3 -8 -6 -5 -6 6 -1 11 2 17 5 13 3 -3 4 -12
1 -19z m32 -159 c12 -17 20 -35 17 -42 -2 -7 -5 -5 -5 5 -1 9 -10 23 -21 31
-12 9 -24 34 -30 67 -14 75 -10 96 5 27 7 -33 22 -72 34 -88z"/>
<path d="M5370 7290 c-9 -6 -10 -10 -3 -10 6 0 15 5 18 10 8 12 4 12 -15 0z"/>
<path d="M5473 7265 c0 -7 7 -11 15 -7 10 3 13 1 8 -6 -3 -6 3 -13 14 -17 11
-4 17 -11 14 -17 -4 -6 -2 -8 3 -5 6 4 19 -9 28 -29 12 -26 20 -33 25 -24 9
15 -10 51 -22 44 -4 -3 -8 0 -8 6 0 15 -26 41 -34 33 -3 -4 -6 -1 -6 5 0 6 -8
16 -18 21 -14 7 -19 6 -19 -4z"/>
<path d="M5485 6874 c-58 -39 -66 -49 -19 -26 22 11 46 28 53 36 19 22 12 20
-34 -10z"/>
<path d="M4318 7003 c12 -2 32 -2 45 0 12 2 2 4 -23 4 -25 0 -35 -2 -22 -4z"/>
<path d="M4489 7001 c12 -8 13 -12 1 -25 -7 -9 -11 -19 -8 -21 3 -3 11 6 18
20 17 31 35 33 20 3 -10 -20 -9 -21 2 -8 8 8 19 20 26 26 10 8 2 11 -30 12
-29 1 -38 -1 -29 -7z"/>
<path d="M4248 6993 c7 -3 16 -2 19 1 4 3 -2 6 -13 5 -11 0 -14 -3 -6 -6z"/>
<path d="M3969 6783 c-13 -16 -12 -17 4 -4 9 7 17 15 17 17 0 8 -8 3 -21 -13z"/>
<path d="M3739 6513 c-13 -16 -12 -17 4 -4 9 7 17 15 17 17 0 8 -8 3 -21 -13z"/>
<path d="M4924 6624 c-18 -14 -18 -15 4 -4 12 6 22 13 22 15 0 8 -5 6 -26 -11z"/>
<path d="M4880 6600 c-8 -5 -15 -15 -15 -22 0 -7 -9 -13 -20 -13 -14 0 -20 -6
-19 -22 1 -13 -2 -20 -7 -18 -4 3 -10 1 -14 -4 -3 -5 2 -14 10 -19 15 -8 15
-10 -1 -23 -16 -12 -17 -12 -11 4 5 12 3 16 -5 11 -7 -4 -8 -3 -4 4 5 8 1 10
-11 5 -12 -4 -10 1 7 14 14 12 23 24 20 27 -3 2 -27 -15 -53 -38 -26 -24 -47
-41 -47 -38 0 3 -11 -5 -25 -18 -14 -13 -25 -28 -25 -34 0 -5 7 -1 15 10 8 10
15 17 15 14 9 -42 7 -45 -30 -40 -10 1 -9 -3 5 -14 14 -10 15 -14 5 -13 -25 4
-41 18 -34 29 5 7 2 8 -5 4 -9 -6 -9 -12 3 -25 13 -14 13 -20 3 -30 -6 -6 3
-5 21 4 18 9 29 21 26 27 -4 6 -1 9 7 6 16 -6 64 28 64 45 0 7 7 12 16 12 19
0 80 50 72 59 -4 3 0 6 8 6 25 0 39 21 28 42 -12 23 -1 24 18 1 13 -16 13 -16
4 4 -6 12 -16 24 -23 26 -8 4 -7 6 4 6 9 1 20 -4 23 -9 8 -13 25 -3 24 13 0 8
-2 8 -6 -1 -4 -10 -8 -10 -17 2 -8 11 -16 13 -26 6z m-30 -56 c0 -10 5 -14 16
-10 8 3 12 2 9 -4 -10 -16 -23 -12 -35 10 -7 14 -7 20 0 20 5 0 10 -7 10 -16z
m-60 -65 c0 -5 -4 -9 -10 -9 -5 0 -10 5 -10 11 0 5 -5 7 -11 3 -8 -5 -8 -8 0
-14 9 -5 8 -10 -3 -20 -9 -7 -13 -17 -9 -24 3 -6 3 -8 -2 -4 -4 4 -15 -2 -25
-14 -13 -17 -17 -18 -17 -5 0 9 4 14 9 11 4 -3 8 -1 8 4 0 6 -7 13 -16 16 -8
3 -12 10 -9 16 4 6 10 8 14 5 5 -2 18 6 31 20 21 22 50 24 50 4z"/>
<path d="M4730 6448 c-12 -22 -12 -22 6 -6 10 10 15 20 12 24 -4 3 -12 -5 -18
-18z"/>
<path d="M4104 5989 c-3 -5 6 -9 20 -9 31 0 34 6 6 13 -11 3 -23 1 -26 -4z"/>
<path d="M4059 5948 c0 -2 -2 -11 -4 -21 -3 -15 -1 -16 11 -6 7 6 11 15 8 20
-5 9 -13 12 -15 7z"/>
<path d="M3926 5831 c-4 -5 -2 -12 3 -15 5 -4 12 -2 15 3 4 5 2 12 -3 15 -5 4
-12 2 -15 -3z"/>
<path d="M3886 5793 c-6 -14 -5 -15 5 -6 7 7 10 15 7 18 -3 3 -9 -2 -12 -12z"/>
<path d="M6187 6274 c-4 -4 -7 -16 -7 -26 0 -10 -5 -18 -12 -18 -24 0 -93 -40
-107 -62 -53 -85 -12 -202 80 -229 l39 -12 0 -104 c0 -56 -4 -103 -8 -103 -20
0 -44 29 -55 66 -13 44 -13 44 -52 44 -31 0 -33 -27 -6 -86 19 -41 72 -84 105
-84 10 0 16 -9 16 -25 0 -21 5 -25 30 -25 25 0 30 4 30 24 0 19 8 27 35 36 69
23 116 107 100 180 -8 35 -62 92 -105 110 l-30 12 0 94 c0 52 4 94 8 94 15 0
40 -34 44 -60 2 -21 8 -25 32 -23 37 3 39 6 31 43 -9 39 -57 96 -89 104 -15 4
-26 15 -28 29 -3 22 -36 36 -51 21z m-11 -281 c-8 -8 -45 17 -57 38 -15 29
-14 86 2 105 7 9 22 20 34 24 19 7 20 3 23 -78 2 -46 1 -87 -2 -89z m118 -135
c22 -31 20 -70 -5 -102 -38 -48 -49 -35 -49 59 0 82 1 85 19 75 11 -5 27 -20
35 -32z"/>
<path d="M6698 5823 c-5 -136 -31 -197 -116 -273 -41 -36 -53 -53 -45 -61 6
-6 20 -8 32 -4 29 9 95 77 125 127 63 107 77 318 22 318 -11 0 -15 -26 -18
-107z"/>
<path d="M5191 6144 c0 -11 3 -14 6 -6 3 7 2 16 -1 19 -3 4 -6 -2 -5 -13z"/>
<path d="M5156 6035 c-9 -26 -7 -32 5 -12 6 10 9 21 6 23 -2 3 -7 -2 -11 -11z"/>
<path d="M5125 5970 c-9 -16 -13 -30 -11 -30 3 0 12 14 21 30 9 17 13 30 11
30 -3 0 -12 -13 -21 -30z"/>
<path d="M4993 5813 c4 -3 1 -13 -6 -22 -11 -14 -10 -14 5 -2 16 12 16 31 1
31 -4 0 -3 -3 0 -7z"/>
<path d="M4893 5725 c0 -8 4 -12 9 -9 5 3 6 10 3 15 -9 13 -12 11 -12 -6z"/>
<path d="M4595 5650 c-3 -6 1 -7 9 -4 18 7 21 14 7 14 -6 0 -13 -4 -16 -10z"/>
<path d="M4586 5619 c2 -4 -4 -13 -13 -19 -16 -10 -16 -11 -1 -6 10 3 20 1 23
-4 4 -6 14 -10 23 -9 12 0 11 3 -5 9 -13 5 -23 12 -23 16 0 3 7 4 14 1 10 -4
13 -1 10 7 -3 7 -11 13 -19 13 -8 0 -12 -4 -9 -8z"/>
<path d="M4535 5553 c-5 -10 -9 -20 -9 -23 -1 -3 -5 -11 -9 -17 -6 -9 -3 -11
8 -7 8 4 18 17 21 31 8 29 -1 41 -11 16z"/>
<path d="M7963 5308 l-53 -10 0 -122 0 -122 58 11 57 12 3 121 c1 67 -1 121
-5 121 -4 -1 -32 -6 -60 -11z"/>
<path d="M4105 5380 c-3 -5 -1 -10 4 -10 6 0 11 5 11 10 0 6 -2 10 -4 10 -3 0
-8 -4 -11 -10z"/>
<path d="M4007 5314 c3 -9 -1 -14 -12 -14 -9 0 -13 -4 -10 -10 4 -6 13 -5 25
3 24 14 25 23 6 30 -10 4 -13 1 -9 -9z"/>
<path d="M7307 5186 l-59 -11 2 -320 c0 -175 2 -320 3 -321 1 -1 29 4 62 10
l60 13 1 317 c1 174 -1 318 -5 319 -3 2 -32 -2 -64 -7z"/>
<path d="M6633 5043 l-33 -4 0 -310 0 -309 23 0 c12 0 39 3 60 6 l37 7 0 308
0 309 -27 -2 c-16 0 -43 -3 -60 -5z"/>
<path d="M5985 4926 l-60 -11 -3 -127 c-2 -99 0 -128 10 -127 7 0 41 6 76 12
l63 12 4 128 c5 144 14 133 -90 113z"/>
<path d="M3458 4458 l-58 -10 0 -122 c0 -68 2 -125 5 -127 2 -3 35 0 72 6 l68
11 3 127 c3 144 12 132 -90 115z"/>
<path d="M2258 4227 l-48 -9 0 -132 c0 -73 2 -135 5 -138 3 -3 28 -1 55 5 l50
10 0 133 c0 73 -3 135 -7 137 -5 2 -29 -1 -55 -6z"/>
<path d="M7065 3923 c-72 -15 -65 -2 -65 -129 l0 -115 48 6 c88 12 82 3 82
131 0 125 2 122 -65 107z"/>
<path d="M5700 3668 c-100 -19 -90 -5 -90 -127 0 -59 2 -110 5 -112 2 -3 34 0
71 6 l66 11 -1 114 c-1 63 -3 115 -4 116 -1 0 -22 -3 -47 -8z"/>
<path d="M4635 3476 l-60 -12 -3 -123 -3 -124 33 7 c18 4 50 9 71 13 l37 6 0
123 c0 68 -3 123 -7 123 -5 -1 -35 -7 -68 -13z"/>
<path d="M3130 3227 c0 -35 2 -66 5 -69 3 -3 17 -3 30 0 24 4 25 8 25 68 l0
64 -30 0 -30 0 0 -63z"/>
<path d="M2833 3233 c-10 -3 -13 -44 -13 -155 0 -149 0 -149 23 -146 22 3 22
6 25 156 3 156 1 160 -35 145z"/>
<path d="M8183 4008 c-23 -11 -53 -64 -53 -93 0 -9 5 -26 11 -38 50 -97 189
-62 189 47 0 78 -74 119 -147 84z m110 -49 c22 -30 17 -59 -16 -89 -27 -26
-65 -25 -94 2 -29 27 -29 57 -2 92 28 36 83 33 112 -5z"/>
<path d="M8194 3957 c-3 -8 -3 -27 0 -43 2 -16 5 -32 5 -36 2 -15 21 -8 21 7
0 8 7 15 15 15 8 0 15 -4 15 -10 0 -5 7 -10 16 -10 9 0 12 5 8 12 -4 7 -8 26
-8 43 -1 26 -5 30 -34 33 -21 2 -34 -2 -38 -11z m51 -17 c3 -5 -1 -10 -9 -10
-9 0 -16 5 -16 10 0 6 4 10 9 10 6 0 13 -4 16 -10z"/>
</g>
</svg>
