<?xml version="1.0" standalone="no"?>
<!DOCTYPE svg PUBLIC "-//W3C//DTD SVG 20010904//EN"
 "http://www.w3.org/TR/2001/REC-SVG-20010904/DTD/svg10.dtd">
<svg version="1.0" xmlns="http://www.w3.org/2000/svg"
 width="555.000000pt" height="508.000000pt" viewBox="0 0 555.000000 508.000000"
 preserveAspectRatio="xMidYMid meet">

<g transform="translate(0.000000,508.000000) scale(0.100000,-0.100000)"
fill="#00FF85" stroke="none">
<path d="M2787 4835 c-707 -97 -1308 -573 -1560 -1235 -54 -140 -85 -258 -104
-390 l-17 -118 -74 -6 c-304 -28 -533 -277 -532 -581 0 -44 4 -96 9 -116 8
-35 7 -37 -46 -79 -174 -136 -269 -374 -242 -609 18 -157 77 -286 181 -392
l58 -59 -195 0 c-188 0 -195 -1 -195 -20 0 -20 7 -20 708 -21 1770 -4 4708 3
4716 11 24 24 -12 30 -177 30 l-172 0 -20 36 c-25 46 -87 101 -144 127 -36 17
-69 22 -149 24 l-104 2 -37 58 c-21 32 -50 69 -64 82 l-26 24 38 46 c74 88
174 247 237 374 335 680 245 1500 -229 2086 l-60 74 47 91 c62 124 90 230 83
321 l-5 71 48 39 c26 22 46 44 43 48 -2 4 -27 -11 -54 -34 l-49 -41 -47 16
c-67 23 -201 21 -293 -5 -41 -11 -114 -39 -162 -61 l-88 -41 -128 61 c-213
102 -400 158 -620 187 -139 18 -439 18 -575 0z m1846 -166 c42 -11 57 -37 57
-95 0 -40 -26 -162 -39 -183 -14 -23 -65 4 -137 72 -61 56 -151 183 -140 194
21 21 199 29 259 12z m-251 -73 c34 -68 143 -185 203 -217 25 -13 45 -28 45
-34 0 -18 -81 -159 -121 -212 -121 -157 -418 -384 -674 -515 l-85 -43 -47 48
-48 48 30 22 c117 86 238 212 251 260 5 24 3 27 -20 27 -57 0 -143 -52 -264
-162 -35 -32 -68 -58 -72 -58 -14 0 -80 96 -80 116 0 27 55 121 126 217 128
171 308 341 471 443 65 41 223 113 248 114 6 0 23 -24 37 -54z m-2021 -152
c25 -41 102 -94 136 -94 13 0 23 -4 23 -10 0 -5 -7 -10 -15 -10 -57 0 -148
-85 -168 -157 l-11 -43 -19 51 c-25 67 -83 124 -144 143 -28 8 -42 16 -33 19
8 3 31 10 51 16 46 15 92 63 120 126 22 49 23 49 30 23 4 -15 17 -44 30 -64z
m857 30 c22 -40 -28 -83 -63 -54 -15 13 -20 51 -8 63 13 13 62 7 71 -9z m455
-205 c20 -5 37 -12 37 -14 0 -2 -33 -46 -72 -97 -40 -51 -91 -121 -113 -156
-39 -61 -41 -62 -75 -57 -52 8 -147 -21 -215 -65 -32 -21 -61 -37 -63 -35 -3
2 12 39 32 81 67 142 184 277 285 329 51 26 121 32 184 14z m-909 -301 c14
-23 -3 -52 -33 -56 -42 -6 -67 38 -39 66 17 17 58 11 72 -10z m-725 -64 c1
-12 17 -53 36 -92 53 -106 128 -165 251 -197 31 -8 59 -16 61 -18 2 -3 -22 -9
-54 -16 -76 -15 -149 -58 -206 -121 -47 -53 -87 -139 -87 -190 0 -46 -17 -44
-24 3 -22 147 -167 294 -311 314 -57 7 -58 19 -1 25 64 8 149 51 201 103 50
50 99 143 111 209 5 33 8 37 15 21 4 -11 8 -30 8 -41z m1861 34 c0 -18 -166
-177 -255 -244 -94 -71 -161 -111 -170 -102 -11 11 14 39 115 133 106 97 183
158 250 198 50 30 60 32 60 15z m-424 -90 c9 -18 30 -52 46 -76 16 -23 26 -47
23 -52 -9 -15 -21 -5 -63 53 -42 57 -55 84 -46 98 10 17 23 9 40 -23z m674
-201 l0 -98 -49 -49 c-86 -86 -263 -188 -356 -206 l-40 -7 52 56 c71 78 113
193 82 224 -7 7 21 28 98 71 59 33 128 76 153 95 30 23 47 31 52 23 4 -6 8
-55 8 -109z m-698 89 c-60 -32 -128 -189 -104 -241 8 -18 19 -25 39 -25 44 0
119 31 173 72 32 24 52 33 56 26 16 -25 -141 -116 -206 -119 -57 -4 -79 8 -86
46 -8 45 10 127 40 173 30 47 84 94 98 86 6 -4 2 -11 -10 -18z m30 -78 c-26
-24 -32 -38 -30 -62 4 -41 29 -45 80 -11 26 17 44 23 50 17 18 -18 -109 -98
-162 -102 -51 -4 -53 -3 -48 48 6 59 31 113 71 152 l31 30 20 -20 20 -20 -32
-32z m202 -57 c45 -45 53 -71 23 -71 -20 0 -110 97 -103 109 13 20 31 11 80
-38z m-619 -209 c-101 -98 -481 -449 -812 -752 -100 -91 -180 -166 -179 -168
2 -1 29 7 62 18 32 12 96 27 142 35 46 8 89 18 95 22 12 7 542 471 795 696 67
60 122 106 122 103 0 -5 -221 -282 -450 -565 -69 -84 -191 -235 -272 -335
l-146 -181 96 -6 c63 -4 117 -14 153 -28 162 -62 264 -198 285 -378 l7 -51 62
43 c316 216 745 70 836 -284 l12 -50 52 47 c233 213 607 156 746 -113 29 -55
37 -64 54 -57 11 4 61 7 110 7 78 -1 97 -4 141 -27 48 -25 114 -88 114 -108 0
-7 -505 -10 -1395 -10 l-1394 0 -3 82 c-3 80 -4 83 -32 96 -19 10 -72 15 -160
16 l-131 1 0 185 c0 212 -14 280 -85 425 -46 93 -82 140 -138 179 l-40 28 -45
-20 c-56 -25 -131 -92 -169 -152 -69 -108 -103 -309 -79 -457 22 -125 101
-262 174 -300 24 -12 51 -14 119 -11 48 3 88 2 88 -3 0 -18 -48 -32 -131 -37
l-87 -5 -57 53 c-62 59 -115 155 -140 255 -19 76 -19 248 0 340 32 152 136
298 249 351 74 34 101 31 158 -17 30 -25 55 -39 64 -35 13 5 12 10 -6 37 -12
16 -40 42 -63 57 -40 27 -44 27 -251 33 -190 6 -223 9 -337 37 -257 64 -405
68 -557 17 -45 -15 -85 -25 -88 -22 -13 13 -16 170 -5 229 59 302 373 498 672
420 122 -32 256 -137 317 -250 l29 -54 109 -1 c96 -2 115 -5 163 -29 l54 -26
67 57 c132 114 213 159 291 163 57 3 84 20 419 263 131 95 481 335 489 335 3
-1 -39 -44 -94 -98z m1515 -108 c0 -27 21 -73 53 -116 29 -39 83 -75 147 -97
l55 -18 -42 -12 c-95 -26 -195 -126 -208 -209 -11 -66 -17 -68 -31 -14 -17 66
-27 84 -72 134 -36 40 -103 79 -157 92 -27 7 -25 9 38 30 46 15 81 36 109 62
43 41 88 124 88 162 0 13 4 20 10 17 6 -3 10 -17 10 -31z m-1205 -528 c31 -86
96 -143 203 -176 55 -18 56 -18 27 -26 -129 -32 -212 -111 -245 -234 l-12 -45
-14 54 c-17 65 -44 111 -87 147 -39 33 -124 74 -154 74 -41 0 -24 15 38 33 50
15 72 29 120 76 49 49 61 69 76 121 13 46 19 58 24 44 4 -11 15 -41 24 -68z
m924 -384 c24 -35 72 -67 114 -78 28 -6 27 -7 -32 -36 -65 -31 -96 -66 -117
-131 -7 -23 -13 -34 -13 -24 -2 56 -86 153 -142 164 -43 8 -44 20 -4 27 51 10
120 79 135 136 l12 45 12 -36 c7 -20 23 -50 35 -67z m-2804 -122 c4 -6 -13
-32 -36 -58 -23 -26 -59 -83 -80 -127 -116 -239 -85 -531 76 -730 44 -54 50
-75 20 -75 -22 0 -101 105 -140 185 -48 99 -65 180 -65 316 0 184 55 350 152
455 40 44 61 53 73 34z m-280 -141 c4 -6 -7 -36 -23 -67 -17 -32 -37 -91 -44
-132 -10 -52 -18 -75 -29 -75 -11 0 -14 14 -12 60 3 111 79 262 108 214z
m-595 -217 c0 -22 7 -32 35 -45 39 -19 70 -60 61 -82 -8 -22 -53 -19 -61 4 -3
11 -12 22 -20 25 -12 4 -15 -5 -15 -43 0 -47 1 -48 41 -67 47 -21 70 -62 62
-107 -6 -31 -55 -77 -84 -77 -16 0 -19 -7 -19 -41 0 -33 -3 -40 -17 -37 -13 2
-19 14 -21 41 -2 25 -8 37 -18 37 -46 0 -108 69 -89 99 10 18 44 12 55 -9 6
-11 19 -24 30 -30 19 -10 20 -7 20 38 0 48 -1 49 -41 67 -49 22 -73 64 -65
110 7 38 29 60 74 76 23 8 32 17 32 33 0 26 8 36 27 36 8 0 13 -11 13 -28z
m1162 -74 c57 -24 121 -91 150 -156 16 -34 22 -68 22 -124 1 -42 -1 -78 -4
-81 -3 -2 -16 -8 -29 -12 -21 -6 -23 -5 -17 11 4 11 10 42 13 70 12 108 -56
220 -159 264 -99 43 -239 14 -302 -61 l-27 -32 3 39 c3 36 7 41 56 67 93 50
199 55 294 15z m-15 -59 c74 -35 124 -122 122 -211 -1 -78 -10 -98 -49 -117
-27 -13 -36 -23 -38 -47 -3 -30 -5 -31 -60 -37 -84 -8 -138 5 -178 44 -47 45
-89 120 -109 195 -16 58 -16 63 0 98 45 94 195 131 312 75z m488 -354 l30 -13
-30 -12 c-78 -32 -425 -19 -425 16 0 18 27 23 125 26 128 5 268 -4 300 -17z
m-219 -67 c128 0 173 3 227 18 29 9 19 -14 -15 -33 -28 -15 -57 -18 -193 -17
-168 1 -218 10 -223 37 -3 14 1 15 30 6 18 -6 96 -10 174 -11z m-66 -58 c101
-8 246 0 283 15 25 10 22 -21 -3 -35 -21 -11 -332 -16 -361 -6 -60 22 -69 27
-64 37 4 6 14 7 24 4 9 -4 63 -10 121 -15z"/>
<path d="M4146 4367 c-48 -27 -76 -78 -76 -138 0 -147 195 -208 281 -88 34 48
37 124 7 169 -54 79 -136 101 -212 57z m145 -12 c43 -23 69 -71 69 -129 0 -43
-4 -53 -38 -86 -50 -51 -99 -60 -157 -32 -55 26 -90 92 -79 147 7 40 46 92 78
105 34 14 95 11 127 -5z"/>
<path d="M4157 4320 c-98 -77 1 -243 111 -186 43 22 62 54 62 104 0 35 -6 49
-29 73 -37 37 -104 41 -144 9z m107 -4 c90 -38 53 -176 -47 -176 -87 0 -115
137 -37 177 32 16 43 16 84 -1z"/>
<path d="M546 1784 c-21 -20 -20 -37 2 -57 28 -25 32 -21 32 28 0 48 -9 55
-34 29z"/>
<path d="M620 1600 c0 -44 21 -55 40 -21 13 25 13 27 -6 45 -25 25 -34 19 -34
-24z"/>
<path d="M1621 1707 c-6 -8 -8 -17 -5 -20 4 -4 -5 -11 -18 -16 -29 -11 -43
-52 -28 -81 14 -27 50 -50 78 -50 26 0 40 -26 23 -43 -11 -11 -17 -10 -83 18
-14 5 -18 2 -18 -11 1 -27 37 -67 55 -60 10 4 15 -1 15 -14 0 -11 7 -20 15
-20 8 0 15 9 15 20 0 11 6 20 13 20 23 0 47 35 47 67 0 33 -26 63 -56 63 -30
0 -58 24 -51 44 7 18 42 22 52 6 8 -14 42 -13 51 2 4 6 -4 21 -19 34 -15 13
-27 27 -27 32 0 9 -23 22 -40 22 -4 0 -13 -6 -19 -13z"/>
<path d="M2010 1390 c0 -6 28 -10 65 -10 37 0 65 4 65 10 0 6 -28 10 -65 10
-37 0 -65 -4 -65 -10z"/>
<path d="M551 1016 c-8 -9 -11 -69 -9 -192 l3 -179 43 -3 c47 -4 49 -1 55 68
l4 45 109 5 c162 7 182 28 172 172 -7 94 -15 98 -208 98 -122 0 -160 -3 -169
-14z m279 -116 c0 -40 -26 -51 -113 -48 l-72 3 -3 38 -3 37 95 0 96 0 0 -30z"/>
<path d="M1007 1024 c-4 -4 -7 -85 -7 -179 0 -154 2 -174 18 -188 16 -14 44
-17 176 -17 l157 0 -3 43 -3 42 -120 5 -120 5 -5 145 -5 145 -40 3 c-23 2 -44
0 -48 -4z"/>
<path d="M1526 1001 c-8 -15 -33 -73 -54 -127 -22 -54 -52 -125 -66 -157 -15
-32 -24 -62 -21 -67 3 -6 28 -10 54 -10 45 0 50 3 61 30 l12 30 92 0 c91 0 91
0 108 -30 15 -26 23 -30 62 -30 25 0 47 4 51 10 3 5 -22 76 -56 157 -34 81
-68 165 -77 186 l-15 37 -68 0 c-65 0 -69 -1 -83 -29z m113 -149 c12 -29 21
-57 21 -62 0 -13 -97 -13 -104 -1 -3 5 1 26 10 47 9 22 21 50 26 63 11 30 21
21 47 -47z"/>
<path d="M1876 1014 c-8 -20 -8 -338 0 -358 8 -20 77 -22 92 -3 6 7 13 57 14
111 l3 98 87 -111 88 -111 55 0 55 0 -2 193 -3 192 -45 0 -45 0 -3 -107 c-1
-60 -5 -108 -8 -108 -7 0 -39 38 -110 131 -32 41 -62 77 -68 81 -6 4 -32 8
-57 8 -34 0 -49 -5 -53 -16z"/>
<path d="M2379 1001 l-29 -29 0 -137 0 -137 29 -29 30 -30 153 3 153 3 0 40 0
40 -126 3 c-121 2 -127 4 -133 25 -3 12 -6 25 -6 30 0 4 54 7 120 7 115 0 121
1 129 22 11 31 3 55 -22 62 -12 3 -66 6 -119 6 -97 0 -98 0 -98 24 0 32 14 36
140 36 119 0 120 1 112 63 l-4 27 -150 0 -150 0 -29 -29z"/>
<path d="M2996 1015 c-3 -9 -6 -77 -6 -151 l0 -134 -98 0 c-109 0 -122 -6
-122 -57 l0 -33 135 0 c130 0 137 1 160 24 31 32 37 66 33 226 l-3 135 -46 3
c-36 2 -48 -1 -53 -13z"/>
<path d="M3277 998 c-42 -89 -137 -340 -132 -349 4 -5 26 -9 50 -9 39 0 46 4
60 30 15 30 16 30 105 30 89 0 90 0 105 -30 14 -27 20 -30 65 -30 44 0 50 3
50 20 0 12 -9 38 -20 60 -11 21 -40 89 -65 152 -66 162 -63 158 -139 158 -62
0 -64 -1 -79 -32z m111 -133 c32 -80 31 -85 -26 -85 -27 0 -51 3 -55 6 -3 3 2
27 12 53 10 25 21 54 24 64 11 29 21 20 45 -38z"/>
<path d="M3637 1023 c-9 -8 -9 -346 -1 -367 5 -14 27 -16 143 -16 156 0 191
11 226 70 29 50 29 200 0 249 -35 60 -71 71 -226 71 -74 0 -139 -3 -142 -7z
m264 -102 c21 -17 24 -28 24 -86 0 -90 -17 -105 -121 -105 l-74 0 0 105 0 105
74 0 c58 0 79 -4 97 -19z"/>
<path d="M4135 1006 c-31 -31 -38 -71 -33 -204 3 -101 5 -113 27 -136 24 -26
26 -26 173 -26 l148 0 32 29 33 29 0 130 c0 140 -10 177 -53 193 -13 5 -86 9
-163 9 -134 0 -141 -1 -164 -24z m273 -83 c13 -25 14 -151 1 -174 -8 -17 -22
-19 -104 -19 l-95 0 0 98 c0 54 3 102 7 105 3 4 46 7 94 7 74 0 90 -3 97 -17z"/>
<path d="M4596 852 c-4 -98 -4 -186 0 -196 5 -13 16 -16 53 -14 l46 3 3 63 3
62 38 0 c44 0 56 -9 105 -77 38 -53 38 -53 92 -53 34 0 54 4 54 12 0 6 -18 35
-40 64 l-39 52 23 16 c33 21 49 77 44 144 -4 45 -10 60 -32 79 -26 22 -34 23
-185 23 l-158 0 -7 -178z m274 73 c7 -8 10 -25 6 -40 -6 -24 -9 -25 -91 -25
l-85 0 0 40 0 40 79 0 c57 0 82 -4 91 -15z"/>
<path d="M3362 567 c-18 -18 -32 -36 -32 -40 0 -4 15 -7 33 -7 38 0 105 49 93
68 -14 24 -61 13 -94 -21z"/>
<path d="M527 473 c-4 -3 -7 -84 -7 -178 0 -140 3 -175 15 -185 10 -8 53 -11
147 -8 149 4 179 15 204 75 20 46 18 196 -2 238 -25 54 -62 65 -216 65 -74 0
-138 -3 -141 -7z m261 -106 c7 -6 12 -35 12 -78 0 -90 -10 -99 -104 -99 l-73
0 -6 92 c-3 50 -4 95 -1 99 6 10 156 -2 172 -14z"/>
<path d="M1082 472 c-15 -10 -142 -324 -142 -352 0 -17 7 -20 46 -20 41 0 46
3 55 30 l11 30 88 0 88 0 12 -30 c11 -28 16 -30 61 -30 36 0 49 4 49 14 0 15
-101 268 -128 321 -8 17 -20 33 -26 37 -15 10 -98 10 -114 0z m87 -153 c31
-75 29 -79 -30 -79 -37 0 -50 4 -47 13 3 6 13 36 23 65 11 28 22 52 26 52 3 0
16 -23 28 -51z"/>
<path d="M1409 461 c-20 -16 -23 -27 -23 -99 -1 -113 3 -116 149 -120 78 -3
115 -8 118 -16 11 -29 -11 -35 -133 -38 l-125 -3 -3 -28 c-6 -52 7 -57 163
-57 182 0 188 4 193 111 5 110 1 113 -145 119 -113 5 -118 6 -121 28 -3 22 -1
22 100 23 137 1 152 6 156 48 2 20 -2 37 -10 42 -7 5 -77 9 -154 9 -124 0
-145 -2 -165 -19z"/>
<path d="M1993 456 l-28 -24 0 -142 0 -142 28 -24 c27 -23 35 -24 156 -24 115
0 131 2 155 21 26 20 27 24 24 113 l-3 91 -95 0 -95 0 -3 -34 c-4 -41 8 -51
66 -51 38 0 42 -2 42 -25 l0 -26 -87 3 -88 3 -3 83 c-2 53 1 89 9 98 9 11 41
14 135 14 111 0 123 2 129 19 3 10 1 30 -4 45 l-11 26 -149 0 c-144 0 -151 -1
-178 -24z"/>
<path d="M2486 408 c-41 -91 -116 -283 -116 -297 0 -6 21 -11 49 -11 45 0 50
2 61 30 l12 30 87 0 c85 0 86 0 103 -30 13 -23 24 -30 47 -30 38 0 61 9 61 24
0 6 -33 88 -73 181 l-73 170 -62 3 -63 3 -33 -73z m122 -93 c12 -31 22 -60 22
-65 0 -6 -22 -10 -50 -10 -27 0 -50 4 -50 9 0 16 42 121 49 121 3 0 16 -25 29
-55z"/>
<path d="M2836 472 c-3 -5 -6 -83 -7 -173 -1 -211 -10 -201 180 -197 l136 3 0
40 0 40 -107 3 -107 3 -3 142 -3 142 -42 3 c-22 2 -44 -1 -47 -6z"/>
<path d="M3305 448 c-54 -123 -125 -301 -128 -320 -2 -20 3 -23 41 -26 38 -3
44 0 60 27 17 31 17 31 104 31 87 0 87 0 103 -31 15 -27 20 -30 58 -27 29 2
43 8 45 19 4 20 -125 324 -145 345 -9 9 -35 14 -69 14 -52 0 -55 -2 -69 -32z
m104 -134 c11 -31 21 -60 21 -65 0 -5 -22 -9 -50 -9 -27 0 -50 3 -50 7 0 14
45 123 51 123 3 0 16 -25 28 -56z"/>
<path d="M3663 472 c-24 -2 -43 -8 -43 -14 0 -6 25 -44 55 -84 30 -40 55 -78
55 -84 0 -6 -25 -44 -56 -85 -66 -87 -66 -105 0 -105 43 0 47 2 87 57 l42 56
25 -29 c71 -85 70 -84 117 -84 67 0 67 18 -4 105 -34 42 -61 81 -61 87 0 7 25
44 55 83 30 40 55 77 55 83 0 30 -98 21 -120 -11 -8 -12 -27 -35 -41 -51 l-25
-29 -37 51 c-42 56 -46 58 -104 54z"/>
<path d="M4062 461 c-4 -11 -5 -95 -2 -188 l5 -168 33 -3 c59 -6 62 2 62 187
0 117 -4 171 -12 179 -20 20 -78 15 -86 -7z"/>
<path d="M4348 463 c-22 -24 -149 -343 -142 -354 3 -5 26 -9 50 -9 41 0 47 3
57 29 13 34 30 41 110 41 58 0 62 -2 105 -55 18 -22 86 -17 90 6 4 23 -126
331 -146 347 -24 19 -106 15 -124 -5z m112 -205 c0 -15 -9 -18 -51 -18 -57 0
-57 0 -17 90 l20 45 24 -50 c13 -27 24 -58 24 -67z"/>
<path d="M4685 455 c-24 -23 -31 -53 -27 -120 5 -84 29 -98 159 -95 117 3 115
4 111 -22 -3 -22 -7 -23 -125 -26 -91 -2 -124 -6 -133 -17 -18 -21 -4 -62 22
-69 41 -11 268 -7 291 5 33 18 37 28 37 105 0 108 -7 113 -150 116 -111 3
-115 4 -118 26 -3 22 -2 22 120 22 133 0 148 5 148 50 0 46 -14 50 -167 50
-139 0 -145 -1 -168 -25z"/>
</g>
</svg>
